<svg width="127" height="21" viewBox="0 0 127 21" fill="none" xmlns="http://www.w3.org/2000/svg">
<path d="M6.26412 20.4249V4.6458H0.439453V0.82666H16.617V4.6458H10.7659V20.4249H6.26558H6.26412Z" fill="#007BFF"/>
<path d="M27.0711 20.797C25.5797 20.797 24.2378 20.5435 23.0454 20.0381C21.8543 19.5327 20.8362 18.8222 19.9909 17.9095C19.1471 16.9969 18.5011 15.9231 18.0557 14.6881C17.6104 13.4531 17.3877 12.1083 17.3877 10.6507C17.3877 9.19305 17.6104 7.84529 18.0557 6.60594C18.5011 5.36659 19.1471 4.29131 19.9909 3.37864C20.8347 2.46597 21.8529 1.75693 23.0454 1.25006C24.2364 0.744648 25.5783 0.491211 27.0711 0.491211C28.5639 0.491211 29.8896 0.744648 31.0763 1.25006C32.2629 1.75547 33.2795 2.46597 34.1234 3.37864C34.9672 4.29131 35.6147 5.36805 36.0644 6.60594C36.5142 7.84529 36.7398 9.19305 36.7398 10.6507C36.7398 12.1083 36.5142 13.4546 36.0644 14.6881C35.6147 15.9231 34.9672 16.9969 34.1234 17.9095C33.2795 18.8222 32.2629 19.5327 31.0763 20.0381C29.8882 20.5435 28.5536 20.797 27.0711 20.797ZM27.0842 17.1317C27.9325 17.1317 28.6737 16.969 29.3095 16.6424C29.9438 16.3171 30.4712 15.8601 30.8917 15.2726C31.3121 14.6852 31.6271 13.9981 31.8366 13.2085C32.0461 12.4204 32.1515 11.5663 32.1515 10.6492C32.1515 9.73216 32.0461 8.87662 31.8366 8.08408C31.6256 7.29154 31.3106 6.59715 30.8917 6.00091C30.4712 5.40468 29.9424 4.94028 29.3037 4.60627C28.6649 4.27226 27.9295 4.10526 27.0989 4.10526C26.2683 4.10526 25.5065 4.27226 24.8678 4.60627C24.229 4.94028 23.6929 5.40614 23.2607 6.00091C22.8271 6.59715 22.5033 7.29154 22.2894 8.08408C22.0756 8.87662 21.9686 9.73216 21.9686 10.6492C21.9686 11.5663 22.0756 12.4189 22.2894 13.2085C22.5033 13.9966 22.8271 14.6852 23.2607 15.2726C23.6929 15.8601 24.229 16.3157 24.8678 16.6424C25.5065 16.9676 26.2463 17.1317 27.0857 17.1317H27.0842Z" fill="#007BFF"/>
<path d="M39.2358 20.4249V0.82666H43.8138L48.9837 9.33952C49.284 9.82882 49.5902 10.3665 49.9037 10.9539C50.2172 11.5414 50.5058 12.1054 50.7724 12.6445C51.0375 13.185 51.3378 13.8018 51.6733 14.4962H51.7246C51.6733 13.7329 51.6323 13.0561 51.603 12.4643C51.5722 11.8724 51.5444 11.2469 51.5195 10.5862C51.4931 9.92551 51.4814 9.31755 51.4814 8.76087V0.82666H55.7767V20.4249H51.1723L46.0537 12.0277C45.7622 11.5311 45.4575 10.9817 45.1411 10.3811C44.8232 9.78047 44.5302 9.20621 44.2606 8.65832C43.9911 8.11042 43.6878 7.48342 43.3538 6.78024H43.2894C43.3407 7.54349 43.3817 8.22469 43.411 8.82532C43.4403 9.42596 43.4696 10.0574 43.4945 10.7224C43.5208 11.3875 43.5326 11.9984 43.5326 12.5551V20.4249H39.2373H39.2358Z" fill="#007BFF"/>
<path d="M66.7551 20.8102C65.0059 20.8102 63.4882 20.5509 62.2034 20.0323C60.9172 19.5137 59.9166 18.7651 59.2003 17.788C58.4839 16.8108 58.1045 15.6271 58.062 14.2384H62.5887C62.6737 14.924 62.8847 15.488 63.2187 15.9289C63.5527 16.3699 64.0156 16.6966 64.6074 16.9061C65.1993 17.1155 65.9142 17.221 66.7551 17.221C67.3381 17.221 67.8846 17.1434 68.3944 16.9896C68.9042 16.8357 69.3202 16.5969 69.641 16.2761C69.9619 15.9553 70.123 15.5363 70.123 15.0221C70.123 14.4479 69.9443 14.0025 69.5898 13.6846C69.2338 13.3682 68.721 13.1074 68.053 12.9067C67.385 12.706 66.5734 12.498 65.6227 12.2826C64.6704 12.0688 63.7753 11.8285 62.9345 11.5619C62.0936 11.2967 61.3567 10.9554 60.7224 10.5393C60.0881 10.1233 59.5914 9.58127 59.2311 8.91325C58.8707 8.24523 58.6905 7.39995 58.6905 6.38034C58.6905 5.02525 59.0274 3.91628 59.6998 3.04903C60.3723 2.18324 61.2864 1.54012 62.4393 1.11968C63.5922 0.699235 64.8887 0.489746 66.3288 0.489746C67.4084 0.489746 68.4017 0.614268 69.3056 0.86331C70.2094 1.11235 71.0005 1.48006 71.6788 1.96935C72.3556 2.45865 72.8947 3.0666 73.2932 3.79615C73.6916 4.52424 73.9246 5.36952 73.9934 6.32906H69.5956C69.4843 5.56582 69.1342 4.97251 68.5482 4.54768C67.9607 4.12284 67.1784 3.91189 66.2013 3.91189C65.2843 3.91189 64.5401 4.09354 63.9702 4.45831C63.4003 4.82309 63.1147 5.31824 63.1147 5.94378C63.1147 6.44919 63.2992 6.84619 63.6669 7.13332C64.0361 7.42046 64.5737 7.66071 65.2813 7.85408C65.9889 8.04746 66.8562 8.25988 67.886 8.49134C68.7694 8.68911 69.6161 8.92643 70.4262 9.20477C71.2364 9.48312 71.9586 9.84349 72.5929 10.2844C73.2272 10.7254 73.7283 11.2938 74.0974 11.9882C74.4666 12.6826 74.6497 13.544 74.6497 14.5724C74.6497 15.9011 74.3025 17.0306 73.6081 17.9608C72.9138 18.8911 71.9703 19.5986 70.7793 20.0821C69.5883 20.567 68.2464 20.8087 66.7536 20.8087L66.7551 20.8102Z" fill="#007BFF"/>
<path d="M75.4346 20.4249L82.4942 0.82666H87.1615L94.2475 20.4249H89.5026L88.2676 16.6834H81.1567L79.9481 20.4249H75.4346ZM82.2129 13.4678H87.2407L86.057 9.81563C85.7654 8.91469 85.5281 8.06941 85.3435 7.2754C85.159 6.48286 84.9773 5.58923 84.7971 4.59453H84.7327C84.5788 5.3065 84.4382 5.93643 84.3151 6.48432C84.1906 7.03368 84.05 7.60501 83.8903 8.20125C83.7321 8.79749 83.5753 9.33513 83.4215 9.81563L82.2129 13.4678Z" fill="#007BFF"/>
<path d="M96.2173 20.4249V0.82666H100.693V16.5793H109.733V20.4249H96.2173Z" fill="#007BFF"/>
<path d="M112.123 20.4249V0.82666H126.821V4.56816H116.597V8.46494H125.444V12.0277H116.597V16.5793H127V20.4249H112.122H112.123Z" fill="#007BFF"/>
</svg>
