<svg width="38" height="54" viewBox="0 0 38 54" fill="none" xmlns="http://www.w3.org/2000/svg">
<path d="M22.3846 28.46L37.3283 28.4671L11.2622 53.0644C15.2159 47.0425 19.1697 41.0225 23.1735 34.9237H15.6131C15.6471 34.8539 22.3864 28.46 22.3864 28.46H22.3846Z" fill="url(#paint0_linear_2276_17663)"/>
<path d="M15.9886 18.1997C19.996 12.0974 23.9462 6.08089 27.8964 0.0661939C27.8749 0.0447256 27.8552 0.0232573 27.8337 0C21.438 6.06479 15.0422 12.1296 8.625 18.2158" fill="url(#paint1_linear_2276_17663)"/>
<path d="M12.525 26.5347L4.35985 34.9127C4.35985 34.9127 12.5697 34.7642 12.6895 34.9127L28.7317 20.105H6.73925C4.49582 22.2303 2.2488 24.3611 0 26.4954L12.525 26.5365V26.5347Z" fill="url(#paint2_linear_2276_17663)"/>
<defs>
<linearGradient id="paint0_linear_2276_17663" x1="11.2622" y1="53.0644" x2="37.3283" y2="53.0644" gradientUnits="userSpaceOnUse">
<stop stop-color="#477BFF"/>
<stop offset="1" stop-color="#58C1FC"/>
</linearGradient>
<linearGradient id="paint1_linear_2276_17663" x1="8.625" y1="18.2158" x2="27.8964" y2="18.2158" gradientUnits="userSpaceOnUse">
<stop stop-color="#477BFF"/>
<stop offset="1" stop-color="#58C1FC"/>
</linearGradient>
<linearGradient id="paint2_linear_2276_17663" x1="0" y1="34.9127" x2="28.7317" y2="34.9127" gradientUnits="userSpaceOnUse">
<stop stop-color="#477BFF"/>
<stop offset="1" stop-color="#58C1FC"/>
</linearGradient>
</defs>
</svg>
